<?xml version="1.0" standalone="no"?>
<!DOCTYPE svg PUBLIC "-//W3C//DTD SVG 20010904//EN"
 "http://www.w3.org/TR/2001/REC-SVG-20010904/DTD/svg10.dtd">
<svg version="1.0" xmlns="http://www.w3.org/2000/svg"
 width="272.000000pt" height="272.000000pt" viewBox="0 0 272.000000 272.000000"
 preserveAspectRatio="xMidYMid meet">
<metadata>
Created by potrace 1.11, written by Peter Selinger 2001-2013
</metadata>
<g transform="translate(0.000000,272.000000) scale(0.100000,-0.100000)"
fill="#000000" stroke="none">
<path d="M1195 2698 c-462 -52 -876 -360 -1068 -793 -127 -287 -149 -621 -62
-920 229 -784 1097 -1189 1840 -858 685 305 992 1108 682 1788 -246 541 -797
851 -1392 783z m-175 -1240 l0 -543 -24 -50 c-43 -92 -101 -125 -221 -125
l-75 0 0 60 0 60 40 0 c23 0 53 6 69 14 56 30 56 25 59 599 l3 527 74 0 75 0
0 -542z m370 277 l0 -265 180 0 180 0 0 265 0 265 80 0 80 0 0 -630 0 -630
-80 0 -80 0 0 305 0 305 -180 0 -180 0 0 -305 0 -305 -80 0 -80 0 0 630 0 630
80 0 80 0 0 -265z"/>
</g>
</svg>
