<svg width="441pt" height="332pt" viewBox="0.00 0.00 441.00 332.00" xmlns="http://www.w3.org/2000/svg" xmlns:xlink="http://www.w3.org/1999/xlink">
<g id="graph0" class="graph" transform="scale(1 1) rotate(0) translate(4 328)">
<title>APIFlow</title>
<polygon fill="white" stroke="none" points="-4,4 -4,-328 437,-328 437,4 -4,4"></polygon>
<!-- A -->
<g id="node1" class="node"><title>A</title>
<ellipse fill="none" stroke="black" cx="106" cy="-306" rx="93.4425" ry="18"></ellipse>
<text text-anchor="middle" x="106" y="-301.8" font-family="Times,serif" font-size="14.00">Receive API Request</text>
</g>
<!-- B -->
<g id="node2" class="node"><title>B</title>
<polygon fill="none" stroke="black" points="152.511,-252 59.4892,-252 59.4892,-216 152.511,-216 152.511,-252"></polygon>
<text text-anchor="middle" x="106" y="-229.8" font-family="Times,serif" font-size="14.00">Validate User</text>
</g>
<!-- A&#45;&gt;B -->
<g id="edge1" class="edge"><title>A-&gt;B</title>
<path fill="none" stroke="black" d="M106,-287.697C106,-279.983 106,-270.712 106,-262.112"></path>
<polygon fill="black" stroke="black" points="109.5,-262.104 106,-252.104 102.5,-262.104 109.5,-262.104"></polygon>
</g>
<!-- C -->
<g id="node3" class="node"><title>C</title>
<polygon fill="none" stroke="black" points="204.471,-180 7.5293,-180 7.5293,-144 204.471,-144 204.471,-180"></polygon>
<text text-anchor="middle" x="106" y="-157.8" font-family="Times,serif" font-size="14.00">Validate URL and API Function</text>
</g>
<!-- B&#45;&gt;C -->
<g id="edge2" class="edge"><title>B-&gt;C</title>
<path fill="none" stroke="black" d="M106,-215.697C106,-207.983 106,-198.712 106,-190.112"></path>
<polygon fill="black" stroke="black" points="109.5,-190.104 106,-180.104 102.5,-190.104 109.5,-190.104"></polygon>
</g>
<!-- G -->
<g id="node6" class="node"><title>G</title>
<polygon fill="none" stroke="black" points="293.089,-252 170.911,-252 170.911,-216 293.089,-216 293.089,-252"></polygon>
<text text-anchor="middle" x="232" y="-229.8" font-family="Times,serif" font-size="14.00">Unauthorized User</text>
</g>
<!-- B&#45;&gt;G -->
<g id="edge5" class="edge"><title>B-&gt;G</title>
<path fill="none" stroke="black" d="M152.758,-234C155.376,-234 157.994,-234 160.612,-234"></path>
<polygon fill="black" stroke="black" points="160.711,-237.5 170.711,-234 160.711,-230.5 160.711,-237.5"></polygon>
</g>
<!-- E -->
<g id="node4" class="node"><title>E</title>
<polygon fill="none" stroke="black" points="197.292,-108 14.7083,-108 14.7083,-72 197.292,-72 197.292,-108"></polygon>
<text text-anchor="middle" x="106" y="-85.8" font-family="Times,serif" font-size="14.00">Validate Function Parameters</text>
</g>
<!-- C&#45;&gt;E -->
<g id="edge3" class="edge"><title>C-&gt;E</title>
<path fill="none" stroke="black" d="M106,-143.697C106,-135.983 106,-126.712 106,-118.112"></path>
<polygon fill="black" stroke="black" points="109.5,-118.104 106,-108.104 102.5,-118.104 109.5,-118.104"></polygon>
</g>
<!-- H -->
<g id="node7" class="node"><title>H</title>
<polygon fill="none" stroke="black" points="433.114,-180 222.886,-180 222.886,-144 433.114,-144 433.114,-180"></polygon>
<text text-anchor="middle" x="328" y="-157.8" font-family="Times,serif" font-size="14.00">URL and API Function Not Found</text>
</g>
<!-- C&#45;&gt;H -->
<g id="edge6" class="edge"><title>C-&gt;H</title>
<path fill="none" stroke="black" d="M204.859,-162C207.455,-162 210.05,-162 212.646,-162"></path>
<polygon fill="black" stroke="black" points="212.657,-165.5 222.657,-162 212.657,-158.5 212.657,-165.5"></polygon>
</g>
<!-- F -->
<g id="node5" class="node"><title>F</title>
<polygon fill="none" stroke="black" points="212.057,-36 -0.0568809,-36 -0.0568809,-0 212.057,-0 212.057,-36"></polygon>
<text text-anchor="middle" x="106" y="-13.8" font-family="Times,serif" font-size="14.00">Dispatch to API Callback Function</text>
</g>
<!-- E&#45;&gt;F -->
<g id="edge4" class="edge"><title>E-&gt;F</title>
<path fill="none" stroke="black" d="M106,-71.6966C106,-63.9827 106,-54.7125 106,-46.1124"></path>
<polygon fill="black" stroke="black" points="109.5,-46.1043 106,-36.1043 102.5,-46.1044 109.5,-46.1043"></polygon>
</g>
<!-- J -->
<g id="node8" class="node"><title>J</title>
<polygon fill="none" stroke="black" points="400.34,-108 215.66,-108 215.66,-72 400.34,-72 400.34,-108"></polygon>
<text text-anchor="middle" x="308" y="-85.8" font-family="Times,serif" font-size="14.00">Parameters Invalid or Missing</text>
</g>
<!-- E&#45;&gt;J -->
<g id="edge7" class="edge"><title>E-&gt;J</title>
<path fill="none" stroke="black" d="M197.137,-90C199.789,-90 202.442,-90 205.094,-90"></path>
<polygon fill="black" stroke="black" points="205.325,-93.5001 215.325,-90 205.325,-86.5001 205.325,-93.5001"></polygon>
</g>
</g>
</svg>